<?xml version="1.0" encoding="iso-8859-1"?>
<!-- Uploaded to: SVG Repo, www.svgrepo.com, Generator: SVG Repo Mixer Tools -->
<!DOCTYPE svg PUBLIC "-//W3C//DTD SVG 1.1//EN" "http://www.w3.org/Graphics/SVG/1.1/DTD/svg11.dtd">
<svg fill="white" height="800px" width="800px" version="1.1" id="Capa_1" xmlns="http://www.w3.org/2000/svg" xmlns:xlink="http://www.w3.org/1999/xlink" 
	 viewBox="0 0 445 445" xml:space="preserve">
<g>
	<path d="M434.57,344.512V184.914h-9.403v-17.902h-117v17.902H141.516c-12.843,15.888-32.474,26.074-54.447,26.074
		c-21.974,0-41.604-10.186-54.447-26.074H10.43v159.598H0v24.5h445v-24.5H434.57z M79.5,307.346H30.75v-87.334H79.5V307.346z
		 M150.25,307.346H101.5v-87.334h48.75V307.346z M279.834,239.68h-12.668v104.832h-89.332V239.68h-12.668v-19.668h114.668V239.68z
		 M397.5,307.346h-89.333v-87.334H397.5V307.346z"/>
	<path d="M190.52,163.066c7.36,11.743,20.41,19.556,35.292,19.555c17.369,0,32.24-10.635,38.486-25.744l-38.484-0.002l-0.002-31.771
		l38.486-0.002c-6.246-15.111-21.119-25.744-38.486-25.744c-14.881-0.001-27.931,7.812-35.292,19.555h-37.04
		c2.315,6.945,3.588,14.363,3.588,22.076c0,7.714-1.273,15.132-3.588,22.078H190.52z"/>
	<path d="M87.068,205.988c35.896,0,65-29.104,65-65s-29.104-65-65-65c-35.896,0-65,29.104-65,65S51.172,205.988,87.068,205.988z
		 M87.068,105.068c19.836,0,35.92,16.084,35.92,35.92c0,19.836-16.084,35.92-35.92,35.92c-19.836,0-35.92-16.084-35.92-35.92
		C51.148,121.152,67.232,105.068,87.068,105.068z"/>
	<polygon points="119.85,137.566 117.582,128.477 100.756,136.771 101.096,138.139 	"/>
	<polygon points="94.16,153.51 100.811,171.051 108.668,165.953 95.344,152.738 	"/>
	<polygon points="62.953,163.957 70.33,169.723 78.488,152.824 77.375,151.955 	"/>
	<polygon points="73.377,135.574 57.338,125.85 54.287,134.699 72.92,136.908 	"/>
	<polygon points="87.563,126.465 91.539,108.127 82.174,108.127 86.15,126.465 	"/>
	<circle cx="87.068" cy="140.988" r="10.543"/>
</g>
</svg>